<svg
                xmlns="http://www.w3.org/2000/svg"
                width="40"
                height="30"
                viewBox="0 0 25 25"
                fill="none"
              >
                <path
                  d="M6.83333 14.625V10.375H12.5V6.94666L18.0533 12.5L12.5 18.0533V14.625H6.83333Z"
                  fill="black"
                />
                <path
                  d="M3.125 19.7917V5.20833C3.125 4.6558 3.34449 4.12589 3.73519 3.73519C4.12589 3.34449 4.6558 3.125 5.20833 3.125H19.7917C20.3442 3.125 20.8741 3.34449 21.2648 3.73519C21.6555 4.12589 21.875 4.6558 21.875 5.20833V19.7917C21.875 20.3442 21.6555 20.8741 21.2648 21.2648C20.8741 21.6555 20.3442 21.875 19.7917 21.875H5.20833C4.6558 21.875 4.12589 21.6555 3.73519 21.2648C3.34449 20.8741 3.125 20.3442 3.125 19.7917ZM17.7083 12.5L12.5 7.29167V10.4167H8.33333V14.5833H12.5V17.7083L17.7083 12.5Z"
                  fill="#FFD233"
                />
              </svg>